<svg xmlns="http://www.w3.org/2000/svg" viewBox="0 0 800 420">
  <defs>
    <linearGradient id="bg" x1="0" y1="0" x2="1" y2="1">
      <stop offset="0" stop-color="#dbeafe"/>
      <stop offset="1" stop-color="#bfdbfe"/>
    </linearGradient>
    <linearGradient id="line" x1="0" y1="1" x2="1" y2="0">
      <stop offset="0" stop-color="#1e3a8a"/>
      <stop offset="1" stop-color="#3b82f6"/>
    </linearGradient>
  </defs>
  <rect width="800" height="420" rx="26" fill="url(#bg)"/>
  <rect x="52" y="56" width="696" height="308" rx="18" fill="#ffffff" opacity="0.82"/>
  <g fill="#93c5fd">
    <rect x="102" y="286" width="56" height="58" rx="8"/>
    <rect x="188" y="236" width="56" height="108" rx="8"/>
    <rect x="274" y="198" width="56" height="146" rx="8"/>
    <rect x="360" y="158" width="56" height="186" rx="8"/>
    <rect x="446" y="126" width="56" height="218" rx="8"/>
  </g>
  <path d="M102 270 C170 230, 220 220, 274 190 C330 158, 390 148, 446 116 C514 82, 560 84, 612 70" fill="none" stroke="url(#line)" stroke-width="10" stroke-linecap="round"/>
  <circle cx="612" cy="70" r="16" fill="#2563eb"/>
  <path d="M606 68 l18 -20 l10 10 l-20 18 z" fill="#1e3a8a"/>
  <text x="86" y="104" fill="#1e3a8a" font-size="32" font-family="Segoe UI, Arial, sans-serif" font-weight="700">Daily Growth</text>
  <text x="86" y="136" fill="#334155" font-size="18" font-family="Segoe UI, Arial, sans-serif">Automated profit insights</text>
</svg>
